Coordinates
version=1
nRows=17
nColumns=36
inDegrees=yes

Units are S.I. units (second, meters, Newtons, ...)
If the header above contains a line with 'inDegrees', this indicates whether rotational values are in degrees (yes) or radians (no).

endheader
time	pelvis_tilt	pelvis_list	pelvis_rotation	pelvis_tx	pelvis_ty	pelvis_tz	hip_flexion_r	hip_adduction_r	hip_rotation_r	knee_angle_r	knee_angle_r_beta	ankle_angle_r	subtalar_angle_r	mtp_angle_r	hip_flexion_l	hip_adduction_l	hip_rotation_l	knee_angle_l	knee_angle_l_beta	ankle_angle_l	subtalar_angle_l	mtp_angle_l	lumbar_extension	lumbar_bending	lumbar_rotation	arm_flex_r	arm_add_r	arm_rot_r	elbow_flex_r	pro_sup_r	arm_flex_l	arm_add_l	arm_rot_l	elbow_flex_l	pro_sup_l
      5.85000000	     -4.20789485	     -0.39357237	      1.28202137	      0.33988590	      0.95961851	     -0.08248094	      0.34663110	     -3.52066129	     -4.44830267	      4.76603211	      0.08318295	      1.49781355	    -14.53144744	     -7.49999987	      0.30828906	     -4.23004538	      0.95590788	      2.68666697	      0.04689118	      0.50450061	     -7.92884950	     -7.49999987	      3.78309945	     -2.07980514	    -15.51901641	   -312.29715630	    -40.05298127	   -394.27103363	     52.26031612	     90.93831422	     -7.93530322	    -30.64859096	    -71.44188624	     42.31478244	     83.10339967
      5.86666670	     -3.91515513	     -0.33592810	      1.23506025	      0.33936761	      0.96034653	     -0.08205383	      0.00185136	     -3.55305024	     -4.25728387	      4.60806761	      0.08042595	      1.02480385	    -15.13594144	     -7.49999987	     -0.02458553	     -4.17044228	      0.99419072	      2.60258192	      0.04542362	     -0.00341342	     -8.66678205	     -7.49999987	      3.19984599	     -2.56424044	    -10.14030927	   -324.04226872	    -42.68349030	   -403.30222009	     56.58967258	     93.08577492	     -0.85108702	    -30.34803606	    -65.89815237	     41.19858907	     87.56385608
      5.88333330	     -3.85855054	     -0.30005125	      1.18464097	      0.33943509	      0.95969827	     -0.08231354	     -0.08760358	     -3.59182171	     -4.31869365	      4.52163124	      0.07891735	      1.06136409	    -14.89297067	     -7.49999987	     -0.11792190	     -4.13401059	      0.84115625	      2.56841389	      0.04482728	     -0.14760146	     -8.79370758	     -7.49999987	      2.91820941	     -2.65228358	     -9.14817742	   -328.07219263	    -41.84288535	   -405.07540029	     57.33025368	     91.69360021	     -0.05686621	    -29.44303067	    -65.04741499	     40.93738395	     88.52494723
      5.90000000	     -3.81135320	     -0.27268858	      1.08137741	      0.33926195	      0.96005215	     -0.08191938	     -0.15702471	     -3.62296779	     -4.27580125	      4.45697584	      0.07778890	      1.07993876	    -14.76094228	     -7.49999987	     -0.21241565	     -4.11464241	      0.55729686	      2.51852938	      0.04395663	     -0.20762295	     -8.81894659	     -7.49999987	      2.73562082	     -2.78385614	     -7.21951972	   -333.74237598	    -41.32613047	   -408.22807245	     58.82020139	     89.72201430	      2.16911149	    -28.30896512	    -63.11642560	     40.48487608	     90.04597603
      5.91666670	     -3.71547736	     -0.23494649	      0.96933809	      0.33930967	      0.95955480	     -0.08212200	     -0.26745781	     -3.67121626	     -4.21345326	      4.40805945	      0.07693515	      1.09378994	    -14.66883508	     -7.49999987	     -0.35364562	     -4.07119112	      0.45797418	      2.43543097	      0.04250629	     -0.32592235	     -8.98526243	     -7.49999987	      2.50467020	     -2.73600199	     -8.15844506	   -333.51140214	    -38.60149521	   -407.81316314	     57.74552699	     87.31427548	      0.35385955	    -27.13976897	    -63.62522259	     40.78152935	     88.04407797
      5.93333330	     -3.62287907	     -0.19416004	      0.86295206	      0.33919591	      0.95726121	     -0.08177444	     -0.35917024	     -3.71818226	     -4.13701673	      4.39306933	      0.07667352	      1.21207870	    -14.58559561	     -7.49999987	     -0.48628206	     -4.02038276	      0.35720410	      2.37596029	      0.04146833	     -0.38857660	     -9.14257902	     -7.49999987	      2.26284689	     -2.86273747	     -6.45067827	   -337.66961683	    -37.94961888	   -410.30739022	     58.24326477	     86.45066181	      1.72620395	    -25.97748431	    -61.26862551	     40.15573798	     88.40318787
      5.95000000	     -3.56940228	     -0.14185616	      0.75344360	      0.33921495	      0.95680552	     -0.08188520	     -0.39656929	     -3.76259639	     -4.01510919	      4.44533412	      0.07758572	      1.33860111	    -14.68115345	     -7.49999987	     -0.55610293	     -3.97808442	      0.14957691	      2.33335656	      0.04072475	     -0.40759064	     -9.34935420	     -7.49999987	      2.06788192	     -2.94988124	     -5.44156728	   -340.74667352	    -36.50449130	   -412.07970648	     57.93036908	     84.93411268	      2.67788805	    -24.75997395	    -60.24275232	     39.90813284	     89.15928881
      5.96666670	     -3.48819294	     -0.07292216	      0.70345925	      0.33903813	      0.95735913	     -0.08146888	     -0.47710725	     -3.81766538	     -4.01273055	      4.50393980	      0.07860858	      1.55626082	    -14.63424410	     -7.49999987	     -0.63538309	     -3.92884426	      0.03795707	      2.31497878	      0.04040400	     -0.43968675	     -9.54891296	     -7.49999987	      1.82904806	     -3.01784649	     -4.57862281	   -343.34385244	    -35.06229442	   -413.59264151	     57.86291329	     82.25267379	      3.49901923	    -23.80069825	    -58.87214836	     39.04473300	     89.45495836
      5.98333330	     -3.47694026	     -0.00269018	      0.63097571	      0.33908903	      0.95700573	     -0.08167203	     -0.36838400	     -3.92287512	     -3.98382073	      4.72906963	      0.08253784	      1.69655316	    -14.70105656	     -7.49999987	     -0.65244196	     -3.85532966	      0.08629249	      2.31431474	      0.04039241	     -0.52433717	     -9.67083506	     -7.49999987	      1.57975425	     -3.02057171	     -3.71896623	   -346.04605069	    -33.13559978	   -415.55804291	     57.92629714	     79.81832561	      4.07214929	    -22.94279939	    -56.80815953	     38.64659962	     88.16812145
      6.00000000	     -3.43509212	     -0.00753982	      0.57716205	      0.33907537	      0.95755395	     -0.08118108	     -0.26418362	     -3.92162774	     -3.88328229	      4.90581313	      0.08562259	      1.93636460	    -14.60139638	     -7.49999987	     -0.76957819	     -3.85329002	      0.09346262	      2.20350351	      0.03845839	     -0.30359482	     -9.45234820	     -7.49999987	      1.32254963	     -2.91078168	     -3.55752863	   -347.75514691	    -31.19588469	   -416.28568075	     57.59944077	     77.55866117	      3.98497672	    -22.08528613	    -56.47067427	     38.36690420	     87.26567202
      6.01666670	     -3.39808451	     -0.00886697	      0.49840735	      0.33918400	      0.95712011	     -0.08130715	     -0.16667247	     -3.93667201	     -3.65925499	      5.05764529	      0.08827256	      2.10332414	    -14.57474026	     -7.49999987	     -0.88593193	     -3.83453262	      0.08201639	      2.17126118	      0.03789566	     -0.13280809	     -9.34506016	     -7.49999987	      1.04654703	     -2.75733403	     -3.40061894	   -349.81400507	    -29.18058208	   -416.92811485	     57.37394021	     74.86526961	      3.48425493	    -20.75195307	    -56.18843237	     37.99306434	     88.13611850
      6.03333330	     -3.36561738	     -0.01062378	      0.40471785	      0.33909973	      0.95760902	     -0.08076059	     -0.04595240	     -3.94381370	     -3.44040580	      5.26018671	      0.09180758	      2.42255163	    -14.44893361	     -7.49999987	     -1.01480288	     -3.80602884	      0.21930163	      2.09801935	      0.03661735	      0.01888374	     -9.38122856	     -7.49999987	      0.74938074	     -2.69446240	     -3.05419316	   -351.89413726	    -26.92163139	   -417.05277710	     57.36944171	     72.03485083	      3.19380663	    -19.65887939	    -55.15075100	     37.18632728	     86.20531623
      6.05000000	     -3.29192279	     -0.02600837	      0.35740237	      0.33906426	      0.95722367	     -0.08087745	     -0.06151952	     -3.94545466	     -3.32421929	      5.35062019	      0.09338594	      2.66963079	    -14.34534050	     -7.49999987	     -1.14596928	     -3.81957221	      0.22889070	      2.06171019	      0.03598363	      0.15048788	     -9.31862662	     -7.49999987	      0.48725093	     -2.55215647	     -2.82264479	   -353.39700687	    -24.75120622	   -417.38124658	     57.12115809	     70.07727914	      3.11974533	    -18.45895784	    -54.66913955	     36.03171569	     86.06705970
      6.06666670	     -3.22676213	     -0.02169767	      0.32407116	      0.33882599	      0.95771757	     -0.08034857	     -0.19061685	     -3.95628453	     -3.23363569	      5.22943883	      0.09127093	      2.65727064	    -14.27998584	     -7.49999987	     -1.25005071	     -3.79636420	      0.22173936	      2.00143142	      0.03493157	      0.12728028	     -9.39549928	     -7.49999987	      0.25725711	     -2.44102809	     -2.66221184	   -354.64486922	    -22.61400627	   -417.03416007	     56.45749160	     68.99264805	      3.33909387	    -17.17272345	    -54.82780525	     34.89129304	     87.94202321
      6.08333330	     -3.21849979	     -0.00806128	      0.26111861	      0.33885372	      0.95423328	     -0.08036187	     -0.17167001	     -4.00067535	     -3.10353809	      5.28548965	      0.09224920	      2.55309888	    -14.52493887	     -7.49999987	     -1.25195260	     -3.75717699	      0.16877525	      2.05359612	      0.03584201	      0.09557189	     -9.80663299	     -7.49999987	      0.24678059	     -2.31246136	     -3.32103206	   -354.38878377	    -20.78017676	   -416.01299672	     54.60741740	     68.51332436	      2.65248530	    -15.80863699	    -55.23306120	     34.87250337	     87.77497078
      6.10000000	     -3.05527650	     -0.02534529	      0.23165263	      0.33864965	      0.95226548	     -0.07996621	     -0.31078542	     -4.00264597	     -3.16140654	      5.38114822	      0.09391875	      2.73254853	    -14.37672201	     -7.49999987	     -1.43229979	     -3.78210791	      0.14006313	      2.06716632	      0.03607886	      0.10948012	    -10.12994607	     -7.49999987	     -0.11369367	     -2.14428816	     -2.19446370	   -357.18041828	    -18.95173242	   -416.91484110	     55.18235504	     67.67779537	      3.74444164	    -14.71135185	    -52.60192642	     33.81471287	     86.17441864
      6.11666670	     -2.99894496	     -0.05036068	      0.18206677	      0.33862737	      0.95498065	     -0.08011774	     -0.46945753	     -3.98474193	     -3.15731117	      5.17725257	      0.09036010	      2.69711340	    -14.30120756	     -7.49999987	     -1.51300503	     -3.82324213	      0.01234000	      1.99670291	      0.03484904	      0.10108373	    -10.32082602	     -7.49999987	     -0.22020221	     -1.90974145	     -2.02389672	   -358.49150442	    -17.05051273	   -416.72557156	     54.63328364	     67.27397808	      3.77030792	    -13.35258678	    -51.46510208	     33.08032338	     86.50048397
